<?xml version="1.0" standalone="no"?>
<!DOCTYPE svg PUBLIC "-//W3C//DTD SVG 20010904//EN"
 "http://www.w3.org/TR/2001/REC-SVG-20010904/DTD/svg10.dtd">
<svg version="1.0" xmlns="http://www.w3.org/2000/svg"
 width="833.000000pt" height="833.000000pt" viewBox="0 0 833.000000 833.000000"
 preserveAspectRatio="xMidYMid meet">
<metadata>
Created by potrace 1.11, written by Peter Selinger 2001-2013
</metadata>
<g transform="translate(0.000000,833.000000) scale(0.100000,-0.100000)"
fill="#000000" stroke="none">
<path d="M2069 7476 c-3 -3 -18 -7 -34 -10 -51 -9 -731 -165 -746 -171 -8 -3
-31 -41 -51 -83 -20 -42 -74 -153 -120 -247 -45 -93 -83 -172 -83 -175 -1 -3
-29 -62 -63 -133 -34 -70 -62 -134 -62 -141 0 -14 44 -109 210 -451 45 -93 92
-190 103 -215 12 -25 23 -49 25 -53 4 -9 -1 -8 -128 22 -47 10 -128 29 -180
41 -52 12 -113 26 -135 31 -22 5 -51 12 -65 15 -14 3 -34 7 -45 9 -14 3 -54
-22 -130 -81 -61 -47 -121 -95 -135 -107 -14 -13 -56 -47 -95 -77 -38 -30 -75
-59 -81 -65 -7 -5 -66 -53 -133 -105 l-121 -95 0 -435 0 -435 296 -235 c163
-129 306 -243 318 -254 46 -40 65 -48 93 -41 41 12 45 13 83 19 19 4 43 9 52
12 27 8 173 42 218 50 14 3 52 11 85 20 107 26 105 26 95 -2 -5 -13 -17 -39
-27 -57 -9 -17 -18 -34 -18 -37 -1 -3 -31 -66 -67 -140 -185 -382 -218 -452
-218 -466 0 -8 23 -63 51 -122 121 -252 180 -374 233 -481 30 -63 54 -116 52
-118 -3 -3 -134 23 -157 32 -8 2 -25 6 -39 9 -20 3 -137 30 -270 61 -8 2 -35
8 -60 14 l-44 10 -111 -87 c-60 -47 -112 -89 -115 -92 -3 -3 -45 -37 -95 -75
-49 -39 -97 -77 -106 -85 -9 -8 -68 -55 -132 -105 l-116 -90 -1 -436 0 -435
276 -220 c152 -120 281 -223 287 -229 81 -69 109 -86 134 -82 16 3 100 21 187
42 88 20 171 39 185 41 14 3 44 10 66 16 22 5 47 11 55 13 8 2 58 13 110 25
52 12 104 23 115 25 72 15 107 30 115 49 4 12 54 116 110 231 56 116 124 256
151 312 27 57 50 103 51 103 2 0 3 -73 3 -162 l0 -163 110 -88 c60 -48 121
-96 136 -107 14 -11 39 -31 55 -44 16 -14 106 -86 199 -160 159 -127 172 -136
204 -131 19 3 153 33 298 66 145 33 273 62 284 64 11 2 29 7 39 10 10 3 29 8
42 10 83 16 135 30 146 38 7 5 29 44 49 86 19 42 72 150 116 241 44 91 99 206
123 255 l43 90 1 -165 0 -165 71 -55 c39 -30 81 -64 94 -75 12 -11 58 -47 100
-80 43 -33 83 -65 89 -71 6 -5 58 -48 116 -93 58 -46 122 -97 144 -115 67 -54
63 -53 181 -23 53 14 210 50 274 63 12 3 53 12 90 20 36 9 76 18 88 20 12 2
33 8 47 14 13 5 26 6 29 4 3 -3 14 -1 25 5 10 6 34 12 53 14 19 2 53 10 77 16
42 12 44 14 99 129 31 64 98 204 150 310 51 106 93 196 93 200 0 4 7 15 14 25
12 15 14 -6 14 -143 0 -145 2 -163 18 -178 11 -10 143 -116 294 -236 151 -121
294 -235 318 -254 42 -34 43 -34 95 -23 28 6 63 14 77 17 14 2 63 14 110 25
47 11 94 22 105 25 22 4 127 27 135 29 3 1 32 7 65 15 33 8 62 14 65 15 83 20
97 23 168 39 35 7 65 15 67 17 3 4 155 316 230 474 23 50 65 135 92 191 27 56
49 108 47 116 -1 8 -33 79 -72 159 -66 137 -182 379 -239 499 -15 30 -29 59
-31 64 -3 5 -1 6 5 3 5 -3 20 -8 34 -10 13 -3 51 -12 84 -20 33 -9 74 -19 92
-22 35 -6 268 -60 320 -74 20 -6 39 -5 52 3 11 6 165 126 340 266 l320 255 1
437 0 437 -47 38 c-26 21 -57 46 -68 55 -46 38 -483 385 -519 412 l-38 29 -77
-17 c-42 -10 -87 -20 -101 -22 -13 -3 -63 -14 -110 -25 -47 -12 -96 -23 -109
-25 -14 -3 -60 -13 -103 -23 -42 -10 -76 -16 -74 -12 2 3 24 49 49 101 25 52
77 163 117 245 40 83 97 201 126 263 l54 113 -66 137 c-37 75 -88 182 -114
237 -26 55 -74 155 -107 223 -33 67 -58 124 -56 126 2 2 34 -4 71 -14 37 -9
112 -27 167 -39 55 -13 146 -34 203 -47 57 -13 111 -24 121 -24 10 0 137 95
282 211 145 116 279 223 298 237 18 15 48 40 67 56 l34 29 0 436 -1 436 -121
95 c-66 52 -126 100 -132 105 -6 6 -40 33 -76 60 -35 28 -76 60 -90 71 -14 12
-74 61 -134 108 -113 89 -127 95 -195 76 -52 -14 -281 -67 -316 -74 -16 -3
-59 -12 -95 -21 -36 -8 -114 -26 -175 -40 -60 -14 -117 -27 -125 -30 -8 -2
-23 -4 -33 -4 -16 -1 -92 -147 -249 -481 -22 -47 -53 -112 -69 -145 l-28 -60
-2 80 c-1 44 -1 117 0 163 1 97 5 92 -178 232 -25 19 -55 43 -66 52 -21 18
-167 134 -270 215 -33 26 -62 50 -65 53 -3 3 -24 20 -48 39 -53 41 -45 41
-302 -19 -74 -18 -142 -33 -150 -35 -8 -2 -96 -22 -195 -45 -99 -23 -191 -44
-204 -46 -14 -3 -29 -8 -34 -11 -8 -5 -67 -124 -259 -522 l-74 -153 -1 153
c-1 85 -2 160 -2 166 -1 7 -79 75 -173 150 -95 76 -182 145 -193 155 -142 117
-302 238 -317 238 -15 0 -107 -19 -223 -46 -11 -3 -29 -7 -40 -9 -11 -3 -90
-21 -175 -41 -85 -19 -166 -38 -180 -40 -14 -3 -31 -7 -39 -10 -8 -2 -28 -7
-45 -10 -17 -2 -53 -10 -81 -17 -47 -13 -51 -16 -82 -78 -42 -84 -205 -421
-254 -526 -21 -46 -40 -83 -42 -83 -1 0 -2 72 -2 161 0 88 -2 164 -5 168 -3 5
-152 126 -333 270 -254 202 -334 261 -355 261 -16 0 -31 -2 -33 -4z m797
-1203 c37 -76 91 -190 121 -253 30 -63 68 -141 83 -172 16 -32 26 -58 22 -58
-4 0 -31 7 -60 14 -29 8 -53 14 -55 14 -1 0 -13 3 -27 6 -14 3 -36 8 -50 10
-14 3 -65 14 -115 26 -49 12 -99 24 -110 26 -50 9 -81 17 -87 21 -5 2 20 26
55 54 96 76 129 103 141 115 8 7 11 65 11 172 0 89 1 162 3 162 1 0 32 -62 68
-137z m3754 -126 c50 -104 104 -219 121 -255 17 -37 36 -75 41 -85 11 -20 20
-22 -143 17 -37 8 -78 17 -90 20 -63 13 -256 58 -267 62 -8 2 5 18 35 41 26
20 76 59 110 86 l62 50 0 106 c0 58 0 133 0 166 l1 60 19 -40 c11 -22 61 -125
111 -228z m-1884 76 c141 -289 205 -426 202 -429 -2 -1 -62 11 -133 27 -72 16
-185 42 -253 57 -67 15 -121 29 -120 33 2 3 50 44 108 91 l105 85 -2 156 c-1
86 1 157 3 157 2 0 43 -80 90 -177z m-3091 -572 c12 -2 58 -12 160 -35 61 -14
124 -27 140 -30 17 -3 50 -11 73 -18 l44 -13 -50 -40 c-28 -22 -65 -51 -82
-64 -18 -14 -44 -36 -59 -50 l-27 -26 1 -152 c0 -84 -2 -153 -6 -153 -3 0 -32
54 -63 121 -78 162 -227 472 -232 481 -2 3 19 0 46 -7 28 -7 53 -14 55 -14z
m3970 -61 c50 -11 101 -23 115 -26 l24 -5 -30 -27 c-17 -15 -65 -54 -108 -87
-42 -33 -76 -67 -77 -75 0 -8 -1 -81 -1 -162 0 -82 -2 -148 -3 -148 -3 0 -28
50 -173 351 -61 125 -113 236 -116 246 -6 18 2 18 136 -14 79 -18 184 -42 233
-53z m-1952 24 c133 -31 243 -57 244 -58 1 -1 -30 -26 -69 -56 -38 -30 -88
-70 -109 -89 l-39 -33 -1 -162 0 -161 -59 120 c-32 66 -84 174 -115 240 -32
66 -73 150 -91 188 -28 54 -31 67 -18 67 8 0 124 -25 257 -56z m-1818 -924 c0
-82 3 -158 6 -168 4 -10 33 -38 65 -62 33 -24 66 -50 74 -57 8 -8 28 -24 44
-37 l28 -24 -93 -21 c-52 -12 -130 -31 -174 -41 -44 -11 -119 -28 -167 -38
l-88 -20 14 27 c8 14 43 85 77 156 151 318 208 435 211 435 2 0 3 -67 3 -150z
m1861 -188 c6 -4 55 -41 107 -82 l96 -75 -32 -9 c-60 -16 -482 -113 -485 -111
-1 1 47 103 106 226 60 123 126 261 148 307 l39 83 5 -166 c3 -106 9 -168 16
-173z m1832 186 c0 -84 1 -158 1 -164 1 -6 49 -49 107 -94 111 -88 114 -93 43
-105 -30 -5 -73 -15 -144 -31 -11 -3 -31 -7 -45 -10 -14 -3 -33 -7 -42 -10
-10 -3 -28 -7 -40 -10 -13 -2 -58 -12 -100 -23 -43 -10 -78 -17 -78 -15 0 6
67 148 157 334 47 96 96 199 109 228 13 28 26 52 28 52 3 0 4 -69 4 -152z
m-2458 -617 c-11 -22 -44 -90 -74 -153 -139 -291 -205 -428 -208 -428 -2 0 -3
69 -3 153 1 83 -1 159 -3 167 -2 8 -24 31 -50 50 -26 19 -58 45 -72 58 -14 12
-40 33 -57 45 -35 24 -41 34 -19 34 7 0 33 5 57 11 61 16 357 83 394 89 17 3
32 7 34 9 2 2 8 4 13 4 5 0 -1 -18 -12 -39z m1860 33 c0 -5 -66 -142 -241
-503 l-56 -116 0 150 c-1 83 -1 157 -2 166 -1 9 -43 49 -93 90 -104 83 -122
99 -117 103 4 2 219 50 279 62 14 3 52 12 85 21 33 8 74 17 90 20 17 3 32 7
34 9 6 6 21 5 21 -2z m1847 -1 c-3 -5 -20 -42 -40 -83 -131 -281 -249 -520
-257 -520 -3 0 -4 72 -4 159 l2 159 -104 83 c-58 45 -107 87 -111 93 -3 6 -3
8 1 4 4 -3 22 -2 39 3 18 5 46 12 62 15 17 3 46 9 65 14 19 5 46 11 60 13 14
3 45 10 70 17 50 14 70 18 119 26 19 3 43 10 55 14 27 11 48 12 43 3z m-1947
-1227 c55 -114 100 -210 100 -212 0 -6 -19 -2 -205 40 -282 65 -300 69 -304
73 -3 2 6 11 19 20 13 9 62 49 109 88 l86 71 -1 165 -2 164 49 -100 c26 -55
93 -194 149 -309z m1791 114 c38 -80 89 -185 113 -235 24 -49 42 -92 40 -94
-2 -2 -43 6 -92 18 -49 12 -98 23 -108 26 -34 7 -299 66 -308 68 -4 2 42 42
102 91 l111 88 0 136 c0 75 0 150 0 167 1 25 7 18 37 -45 19 -41 67 -140 105
-220z m-3799 222 c65 -137 188 -393 222 -461 43 -88 44 -95 9 -86 -16 4 -35 8
-43 10 -8 2 -98 22 -200 45 -101 23 -196 44 -209 47 -14 2 -27 6 -29 7 -2 2
43 41 100 86 57 46 105 87 108 91 3 5 5 78 5 164 0 85 2 155 5 155 3 0 17 -26
32 -58z m-1202 -687 c50 -12 342 -79 379 -86 24 -5 46 -11 48 -13 2 -2 -38
-36 -89 -77 -51 -41 -100 -81 -108 -89 -13 -13 -16 -44 -15 -177 0 -89 -3
-159 -7 -157 -4 3 -8 9 -8 13 0 8 -124 269 -236 496 -24 50 -44 95 -44 99 0 7
26 4 80 -9z m1823 5 c23 -5 89 -20 147 -34 58 -13 121 -28 140 -32 19 -4 37
-8 40 -9 3 -1 31 -7 63 -14 31 -7 57 -15 57 -17 0 -7 -18 -24 -70 -64 -63 -49
-71 -55 -107 -85 l-33 -27 -1 -161 0 -162 -57 115 c-65 131 -210 431 -228 473
-15 30 -12 31 49 17z m1872 -5 c17 -3 75 -17 130 -30 55 -13 114 -27 130 -30
17 -3 61 -13 99 -23 l69 -18 -49 -39 c-27 -22 -54 -44 -60 -50 -7 -5 -32 -26
-58 -45 -25 -19 -46 -44 -47 -55 -1 -11 -1 -87 -1 -170 l0 -150 -58 120 c-193
400 -240 497 -240 501 0 5 19 2 85 -11z"/>
</g>
</svg>
